<svg xmlns="http://www.w3.org/2000/svg" viewBox="0 0 292.26 244.94"><defs><style>.cls-1{fill:#b11e48;}</style></defs><title>logo_icon</title><g id="Layer_2" data-name="Layer 2"><g id="Layer_1-2" data-name="Layer 1"><path class="cls-1" d="M285.12,137,235.8,106.69a15,15,0,0,0-15.72,0L170.76,137a15,15,0,1,0,15.72,25.55l25.12-15.45A92.47,92.47,0,1,1,122.47,30,91.66,91.66,0,0,1,178,48.56a15,15,0,1,0,18.05-24,122.47,122.47,0,1,0-73.63,220.34,122.67,122.67,0,0,0,120.17-98.82l26.76,16.46A15,15,0,0,0,285.12,137Z"/></g></g></svg>