<svg xmlns="http://www.w3.org/2000/svg" viewBox="0 0 976.4 244.94"><defs><style>.cls-1{fill:#fff;}.cls-2{fill:#b11e48;}</style></defs><title>logo_white</title><g id="Layer_2" data-name="Layer 2"><g id="Layer_1-2" data-name="Layer 1"><path class="cls-1" d="M4.4,232.61A14.75,14.75,0,0,1,0,221.76V23.18a14.63,14.63,0,0,1,4.4-11A15,15,0,0,1,15.25,7.93H85.36q19.65,0,34.91,7.77a58.21,58.21,0,0,1,32.56,53.24,44.89,44.89,0,0,1-7.77,25.81,57,57,0,0,1-21.27,18.48q19.94,4.7,31.39,18.77t11.44,35.79q0,20-9.53,35.79a65.06,65.06,0,0,1-26.69,24.64Q113.22,237,91.52,237H15.25A14.75,14.75,0,0,1,4.4,232.61Zm81-130.53q17.3,0,27.72-8.51t10.41-24.64q0-16.13-10.41-24.49T85.36,36.09H30.51v66Zm6.16,106.77q20.53,0,33.15-10.71t12.61-30.36q0-18.18-12.47-27.87t-33.29-9.68h-61v78.61Z"/><path class="cls-1" d="M216.47,232.61a14.75,14.75,0,0,1-4.4-10.85V23.18a14.63,14.63,0,0,1,4.4-11,16.16,16.16,0,0,1,21.85,0,14.9,14.9,0,0,1,4.25,11V221.76a15,15,0,0,1-4.25,10.85,15.77,15.77,0,0,1-21.85,0Z"/><path class="cls-1" d="M305.49,232.76a14.87,14.87,0,0,1-4.25-11V23.18a14.88,14.88,0,0,1,4.25-11A14.52,14.52,0,0,1,316.2,7.93a14.37,14.37,0,0,1,6.45,1.61,17.09,17.09,0,0,1,5.28,4L455.82,183.63V23.18a14.63,14.63,0,0,1,4.4-11,15,15,0,0,1,10.85-4.25,14.54,14.54,0,0,1,10.71,4.25,14.9,14.9,0,0,1,4.25,11V221.76a14.89,14.89,0,0,1-4.25,11A14.52,14.52,0,0,1,471.07,237a18,18,0,0,1-6.6-1.32,10.59,10.59,0,0,1-5.13-4L331.45,61.6V221.76a15,15,0,0,1-4.25,10.85,15.78,15.78,0,0,1-21.71.15Z"/><path class="cls-1" d="M818,232.61a14.75,14.75,0,0,1-4.4-10.85V23.18a14.63,14.63,0,0,1,4.4-11,15,15,0,0,1,10.85-4.25H961.44q6.74,0,10.85,4A13.82,13.82,0,0,1,976.4,22.3a13,13,0,0,1-4.11,10q-4.11,3.82-10.85,3.81H844.11v71.28H928.3a15.11,15.11,0,0,1,10.71,4,14.17,14.17,0,0,1,0,20.24,15.11,15.11,0,0,1-10.71,4H844.11v73.33H961.44q6.74,0,10.85,3.81a13,13,0,0,1,4.11,10,13.81,13.81,0,0,1-4.11,10.41q-4.11,4-10.85,4H828.86A14.75,14.75,0,0,1,818,232.61Z"/><path class="cls-2" d="M793.46,137l-49.32-30.33a15,15,0,0,0-15.72,0L679.1,137a15,15,0,1,0,15.72,25.55l25.12-15.45A92.47,92.47,0,1,1,630.81,30a91.66,91.66,0,0,1,55.58,18.56,15,15,0,1,0,18.05-24,122.47,122.47,0,1,0-73.63,220.34A122.67,122.67,0,0,0,751,146.12l26.76,16.46A15,15,0,0,0,793.46,137Z"/></g></g></svg>