<?xml version="1.0" encoding="utf-8"?>
<!-- Generator: Adobe Illustrator 21.1.0, SVG Export Plug-In . SVG Version: 6.00 Build 0)  -->
<svg version="1.1" id="Layer_1" xmlns="http://www.w3.org/2000/svg" xmlns:xlink="http://www.w3.org/1999/xlink" x="0px" y="0px"
	 viewBox="0 0 13 22" style="enable-background:new 0 0 13 22;" xml:space="preserve">
<style type="text/css">
	.st0{fill:#FFFFFF;}
	.st1{fill:none;}
</style>
<path class="st0" d="M10.5,0h-8C1.1,0,0,1.1,0,2.5v17C0,20.9,1.1,22,2.5,22h8c1.4,0,2.5-1.1,2.5-2.5v-17C13,1.1,11.9,0,10.5,0z
	 M6.5,21C5.7,21,5,20.3,5,19.5S5.7,18,6.5,18S8,18.7,8,19.5S7.3,21,6.5,21z M11,17H2V3h9V17z"/>
<path class="st1" d="M0,0h24v24H0V0z"/>
</svg>
