<?xml version="1.0" encoding="utf-8"?>
<!-- Generator: Adobe Illustrator 21.1.0, SVG Export Plug-In . SVG Version: 6.00 Build 0)  -->
<svg version="1.1" id="Layer_1" xmlns="http://www.w3.org/2000/svg" xmlns:xlink="http://www.w3.org/1999/xlink" x="0px" y="0px"
	 viewBox="0 0 24 17" style="enable-background:new 0 0 24 17;" xml:space="preserve">
<style type="text/css">
	.st0{fill:none;}
	.st1{fill:#FFFFFF;}
</style>
<path class="st0" d="M0,0h24v24H0V0z"/>
<path class="st1" d="M20,15c1.1,0,2-0.9,2-2l0-11c0-1.1-0.9-2-2-2H4C2.9,0,2,0.9,2,2v11c0,1.1,0.9,2,2,2H0c0,1.1,0.9,2,2,2h20
	c1.1,0,2-0.9,2-2H20z M4,2h16v11H4V2z M12,16c-0.6,0-1-0.5-1-1s0.4-1,1-1s1,0.5,1,1S12.6,16,12,16z"/>
</svg>
